<svg width="120" height="120" viewBox="0 0 120 120" fill="none" xmlns="http://www.w3.org/2000/svg">
<path d="M3.2772 61.9931C2.56475 60.7594 2.56475 59.2406 3.2772 58.0069L29.9114 11.936C30.6238 10.7022 31.9409 9.94286 33.3678 9.94286H86.6322C88.0591 9.94286 89.3762 10.7022 90.0887 11.936L116.723 58.0069C117.435 59.2406 117.435 60.7594 116.723 61.9931L90.0887 108.064C89.3762 109.298 88.0591 110.057 86.6322 110.057H33.3678C31.9409 110.057 30.6238 109.298 29.9114 108.064L3.2772 61.9931Z" fill="white" stroke="#915ECE" stroke-width="3"/>
<path d="M60 49.4571C62.4429 39.814 71.6692 34.8901 91.7571 34.8C92.0783 34.7988 92.3965 34.8612 92.6934 34.9835C92.9903 35.1058 93.2601 35.2857 93.4872 35.5128C93.7143 35.7399 93.8942 36.0097 94.0165 36.3066C94.1389 36.6035 94.2012 36.9217 94.2 37.2429V81.2143C94.2 81.8622 93.9426 82.4835 93.4845 82.9417C93.0264 83.3998 92.405 83.6572 91.7571 83.6572C72.2143 83.6572 64.6643 87.5978 60 93.4286C55.3632 87.6268 47.7857 83.6572 28.2429 83.6572C26.7344 83.6572 25.8 82.4281 25.8 80.9196V37.2429C25.7988 36.9217 25.8612 36.6035 25.9835 36.3066C26.1058 36.0097 26.2857 35.7399 26.5128 35.5128C26.7399 35.2857 27.0097 35.1058 27.3066 34.9835C27.6035 34.8612 27.9217 34.7988 28.2429 34.8C48.3308 34.8901 57.5571 39.814 60 49.4571Z" stroke="#FF8B49" stroke-width="4" stroke-linecap="round" stroke-linejoin="round"/>
<path d="M60 49.4571V93.4286" stroke="#FF8B49" stroke-width="4" stroke-linecap="round" stroke-linejoin="round"/>
<path d="M37.024 64.988C38.296 66.044 39.376 66.764 40.264 67.148C41.176 67.508 41.92 67.688 42.496 67.688C43.576 67.688 44.116 67.256 44.116 66.392C44.116 65.864 43.864 65.444 43.36 65.132C42.856 64.796 41.932 64.412 40.588 63.98C39.82 63.716 39.076 63.38 38.356 62.972C37.636 62.564 37.048 62.024 36.592 61.352C36.136 60.68 35.908 59.816 35.908 58.76C35.908 57.248 36.496 56.096 37.672 55.304C38.848 54.488 40.324 54.08 42.1 54.08C43.516 54.08 44.812 54.32 45.988 54.8C47.164 55.256 48.232 55.832 49.192 56.528L47.248 60.092C46.576 59.444 45.784 58.904 44.872 58.472C43.984 58.04 43.168 57.824 42.424 57.824C41.944 57.824 41.572 57.92 41.308 58.112C41.068 58.304 40.948 58.556 40.948 58.868C40.948 59.42 41.272 59.828 41.92 60.092C42.592 60.356 43.54 60.728 44.764 61.208C45.628 61.52 46.42 61.88 47.14 62.288C47.86 62.696 48.436 63.212 48.868 63.836C49.324 64.46 49.552 65.288 49.552 66.32C49.552 68.072 49.012 69.404 47.932 70.316C46.852 71.228 45.316 71.684 43.324 71.684C41.524 71.684 39.928 71.396 38.536 70.82C37.144 70.22 35.884 69.476 34.756 68.588L37.024 64.988Z" fill="#323AFF"/>
<path d="M71.924 59.516L70.088 55.88C71.048 55.424 72.176 54.992 73.472 54.584C74.792 54.176 76.232 53.972 77.792 53.972C79.256 53.972 80.564 54.188 81.716 54.62C82.868 55.028 83.78 55.628 84.452 56.42C85.124 57.212 85.46 58.184 85.46 59.336V71H80.24V68.732C79.736 69.596 78.98 70.256 77.972 70.712C76.988 71.144 75.92 71.36 74.768 71.36C73.712 71.36 72.728 71.168 71.816 70.784C70.928 70.376 70.208 69.776 69.656 68.984C69.128 68.192 68.864 67.232 68.864 66.104C68.864 64.52 69.416 63.272 70.52 62.36C71.648 61.424 73.256 60.956 75.344 60.956C76.352 60.956 77.276 61.064 78.116 61.28C78.956 61.472 79.664 61.712 80.24 62V60.56C80.24 58.928 79.196 58.112 77.108 58.112C76.388 58.112 75.668 58.196 74.948 58.364C74.228 58.532 73.592 58.736 73.04 58.976C72.512 59.192 72.14 59.372 71.924 59.516ZM74.372 65.816C74.372 66.464 74.588 66.968 75.02 67.328C75.476 67.664 76.04 67.832 76.712 67.832C77.6 67.832 78.392 67.568 79.088 67.04C79.784 66.488 80.168 65.672 80.24 64.592C79.256 64.16 78.188 63.944 77.036 63.944C76.076 63.944 75.392 64.112 74.984 64.448C74.576 64.76 74.372 65.216 74.372 65.816Z" fill="#323AFF"/>
</svg>
